#tb 0: 1/10
#media_type 0: video
#codec_id 0: gif
#dimensions 0: 217x217
#sar 0: 0/1
0,          0,          0,        1,     1297, 0x5618fe71
0,          1,          1,        1,      221, 0x230c4e66, F=0x0
0,          2,          2,        1,      139, 0xf87a2b65, F=0x0
0,          3,          3,        1,      392, 0x7794a5e6, F=0x0
0,          4,          4,        1,      389, 0xf856a3f1, F=0x0
0,          5,          5,        1,      438, 0x0f95b4fb, F=0x0
0,          6,          6,        1,      526, 0x7885d860, F=0x0
0,          7,          7,        1,      543, 0x859fe7df, F=0x0
0,          8,          8,        1,      446, 0xb34dba74, F=0x0
0,          9,          9,        1,      931, 0x1c2fa48d, F=0x0
0,         10,         10,        1,      702, 0x1ce74b4d, F=0x0
0,         11,         11,        1,     1202, 0x2f232db8, F=0x0
0,         12,         12,        1,     1299, 0x904e56af, F=0x0
0,         13,         13,        1,     1253, 0x20803653, F=0x0
0,         14,         14,        1,     1338, 0x24e052f6, F=0x0
0,         15,         15,        1,     1284, 0x590a3a42, F=0x0
0,         16,         16,        1,     1483, 0x93e09883, F=0x0
0,         17,         17,        1,     1792, 0x70984bdf, F=0x0
0,         18,         18,        1,     1683, 0x23b9fc30, F=0x0
0,         19,         19,        1,     1517, 0x0fc1acf6, F=0x0
0,         20,         20,        1,     1713, 0x6b4c1861, F=0x0
0,         21,         21,        1,     1753, 0x896b20c1, F=0x0
0,         22,         22,        1,     1650, 0x2f26027f, F=0x0
0,         23,         23,        1,     1726, 0x9f731df0, F=0x0
0,         24,         24,        1,     1908, 0xebd67b41, F=0x0
0,         25,         25,        1,     1815, 0xf2685278, F=0x0
0,         26,         26,        1,     1923, 0xbe18821e, F=0x0
0,         27,         27,        1,     2108, 0x1318d306, F=0x0
0,         28,         28,        1,     2708, 0x5e28f23c, F=0x0
0,         29,         29,        1,     2681, 0xb96da855, F=0x0
0,         30,         30,        1,     2903, 0x61cf4983, F=0x0
0,         31,         31,        1,     3265, 0x95a1d25d, F=0x0
0,         32,         32,        1,     3187, 0x6a67c299, F=0x0
0,         33,         33,        1,     3304, 0x1c5ce63e, F=0x0
0,         34,         34,        1,     3608, 0x2ed2770f, F=0x0
0,         35,         35,        1,     3707, 0xa075a17b, F=0x0
0,         36,         36,        1,     3822, 0xc842d6b6, F=0x0
0,         37,         37,        1,     3635, 0x814680c7, F=0x0
0,         38,         38,        1,     2958, 0x64de62cf, F=0x0
0,         39,         39,        1,     3094, 0x2c338e84, F=0x0
0,         40,         40,        1,     3102, 0xec5e8757, F=0x0
0,         41,         41,        1,     3464, 0xea4f2bce, F=0x0
0,         42,         42,        1,     4116, 0xded05ff3, F=0x0
0,         43,         43,        1,     4225, 0x21825a2c, F=0x0
0,         44,         44,        1,     3621, 0xa3125130, F=0x0
0,         45,         45,        1,     3918, 0x35e0e876, F=0x0
0,         46,         46,        1,     4469, 0xa408e1f7, F=0x0
0,         47,         47,        1,     4601, 0x6f7d3081, F=0x0
0,         48,         48,        1,     4830, 0x023e9cab, F=0x0
0,         49,         49,        1,     5406, 0xf67ac12c, F=0x0
0,         50,         50,        1,     5274, 0xf14e9768, F=0x0
0,         51,         51,        1,     5424, 0x2af8e2a7, F=0x0
0,         52,         52,        1,     5527, 0x80f70710, F=0x0
0,         53,         53,        1,     5709, 0x89975c2f, F=0x0
0,         54,         54,        1,     6168, 0xf5a542af, F=0x0
0,         55,         55,        1,     6241, 0x091651ad, F=0x0
0,         56,         56,        1,     5919, 0x32a7c5a2, F=0x0
0,         57,         57,        1,     6005, 0x88adf6be, F=0x0
0,         58,         58,        1,     5954, 0x3f92f18d, F=0x0
0,         59,         59,        1,     6476, 0x9d90d099, F=0x0
0,         60,         60,        1,     6745, 0xdf4f3cb1, F=0x0
0,         61,         61,        1,     6283, 0x6e7e8f63, F=0x0
0,         62,         62,        1,     6649, 0x5c1f366c, F=0x0
0,         63,         63,        1,     6386, 0xa09389c3, F=0x0
0,         64,         64,        1,     6265, 0xe5b85888, F=0x0
0,         65,         65,        1,     6916, 0x445e734f, F=0x0
0,         66,         66,        1,     7238, 0x30a52626, F=0x0
0,         67,         67,        1,     7564, 0x1ddaa7cc, F=0x0
0,         68,         68,        1,     7421, 0x118e7850, F=0x0
0,         69,         69,        1,     7484, 0x5459acd8, F=0x0
0,         70,         70,        1,     7604, 0x66f9e6a5, F=0x0
0,         71,         71,        1,     7764, 0x862c0630, F=0x0
0,         72,         72,        1,     8023, 0x06e16db8, F=0x0
0,         73,         73,        1,     8136, 0xce28c084, F=0x0
0,         74,         74,        1,     8109, 0x61c4aef6, F=0x0
0,         75,         75,        1,     7871, 0x631d4073, F=0x0
0,         76,         76,        1,     7968, 0x3b7692f0, F=0x0
0,         77,         77,        1,     8246, 0x531bebc2, F=0x0
0,         78,         78,        1,     8329, 0xe1fd48c9, F=0x0
0,         79,         79,        1,     8570, 0x996fc156, F=0x0
0,         80,         80,        1,     8754, 0x99fb0c5a, F=0x0
0,         81,         81,        1,     8586, 0xf3eba620, F=0x0
0,         82,         82,        1,     8886, 0xa08258a9, F=0x0
0,         83,         83,        1,     9085, 0x229359d3, F=0x0
0,         84,         84,        1,     9318, 0x3baaf9b9, F=0x0
0,         85,         85,        1,     9402, 0xe27a4804, F=0x0
0,         86,         86,        1,     9169, 0x23fd9a49, F=0x0
0,         87,         87,        1,     9470, 0xe389379c, F=0x0
0,         88,         88,        1,     9658, 0x6a409434, F=0x0
0,         89,         89,        1,     9709, 0x42969ccd, F=0x0
0,         90,         90,        1,     9531, 0x473139f3, F=0x0
0,         91,         91,        1,     9899, 0xb85e0cd0, F=0x0
0,         92,         92,        1,    10013, 0xda4d4db8, F=0x0
0,         93,         93,        1,    10046, 0x0cc12baa, F=0x0
0,         94,         94,        1,    10094, 0x22b6451c, F=0x0
0,         95,         95,        1,    10446, 0x03a604aa, F=0x0
0,         96,         96,        1,    10591, 0x3c8d599a, F=0x0
0,         97,         97,        1,    10589, 0x3936826f, F=0x0
0,         98,         98,        1,    10815, 0xb795dc11, F=0x0
0,         99,         99,        1,    11119, 0x506c5187, F=0x0
0,        100,        100,        1,    11202, 0x92856baf, F=0x0
0,        101,        101,        1,    11248, 0xdf29a1db, F=0x0
0,        102,        102,        1,    11491, 0x656df632, F=0x0
0,        103,        103,        1,    11688, 0xeb175aa9, F=0x0
0,        104,        104,        1,    11793, 0x99ccb713, F=0x0
0,        105,        105,        1,    11444, 0x602c0c0d, F=0x0
0,        106,        106,        1,    11936, 0xe89cc9bd, F=0x0
0,        107,        107,        1,    11940, 0xc668bf2f, F=0x0
0,        108,        108,        1,    12289, 0x9bd5780d, F=0x0
0,        109,        109,        1,    12342, 0xd9c680fb, F=0x0
0,        110,        110,        1,    12460, 0xb539b50f, F=0x0
0,        111,        111,        1,    12703, 0x07473fac, F=0x0
0,        112,        112,        1,    12676, 0x743052ae, F=0x0
0,        113,        113,        1,    12965, 0xf6aaa045, F=0x0
0,        114,        114,        1,    13062, 0xea13e513, F=0x0
0,        115,        115,        1,    13155, 0x82312fa0, F=0x0
0,        116,        116,        1,    13179, 0xd59c1dda, F=0x0
0,        117,        117,        1,    13206, 0xde825850, F=0x0
0,        118,        118,        1,    13219, 0x0b375f69, F=0x0
0,        119,        119,        1,    13218, 0x14036301, F=0x0
0,        120,        120,        1,    13475, 0x259da599, F=0x0
0,        121,        121,        1,    13673, 0x9b43dd2a, F=0x0
0,        122,        122,        1,    13700, 0x190bebf1, F=0x0
0,        123,        123,        1,    13829, 0x9f802c28, F=0x0
0,        124,        124,        1,    13954, 0x5236926c, F=0x0
0,        125,        125,        1,    14071, 0xf5c3d36a, F=0x0
0,        126,        126,        1,    14132, 0xbf35cdb9, F=0x0
0,        127,        127,        1,    14339, 0x9cf65120, F=0x0
0,        128,        128,        1,    14477, 0x3a9eabb7, F=0x0
0,        129,        129,        1,    14544, 0xed09a2d3, F=0x0
0,        130,        130,        1,    14616, 0xa138d2a0, F=0x0
0,        131,        131,        1,    14906, 0x13bd28eb, F=0x0
0,        132,        132,        1,    14986, 0x5454a127, F=0x0
0,        133,        133,        1,    15150, 0x585cdb9b, F=0x0
0,        134,        134,        1,    15137, 0x191bbaae, F=0x0
0,        135,        135,        1,    15251, 0xa8461431, F=0x0
0,        136,        136,        1,    15345, 0x2015670e, F=0x0
0,        137,        137,        1,    15646, 0x772da02d, F=0x0
0,        138,        138,        1,    15920, 0xfabc27f3, F=0x0
0,        139,        139,        1,    16049, 0x2a66498f, F=0x0
0,        140,        140,        1,    16236, 0x29750328, F=0x0
0,        141,        141,        1,    16270, 0x4528e71c, F=0x0
0,        142,        142,        1,    16379, 0x9a450fab, F=0x0
0,        143,        143,        1,    16669, 0x31ffaac8, F=0x0
0,        144,        144,        1,    16925, 0x6c4318ac, F=0x0
0,        145,        145,        1,    17157, 0xf4b1cf0c, F=0x0
0,        146,        146,        1,    17180, 0xd1bab36c, F=0x0
0,        147,        147,        1,    17323, 0x419eaee3, F=0x0
0,        148,        148,        1,    17405, 0xdf3f16ee, F=0x0
0,        149,        149,        1,    17439, 0x7153f9f8, F=0x0
0,        150,        150,        1,    17584, 0x1612557d, F=0x0
0,        151,        151,        1,    17772, 0xffa78d73, F=0x0
0,        152,        152,        1,    17834, 0x3e33866a, F=0x0
0,        153,        153,        1,    17926, 0xdfc39bcd, F=0x0
0,        154,        154,        1,    17831, 0x5f8ebc12, F=0x0
0,        155,        155,        1,    18150, 0xc25e1f7f, F=0x0
0,        156,        156,        1,    18265, 0x9b688807, F=0x0
0,        157,        157,        1,    18345, 0xdc6abd59, F=0x0
0,        158,        158,        1,    18301, 0x14d43a0e, F=0x0
0,        159,        159,        1,    18426, 0x3b2cbcde, F=0x0
0,        160,        160,        1,    18615, 0x6fa5492e, F=0x0
0,        161,        161,        1,    18924, 0xa370be9b, F=0x0
0,        162,        162,        1,    19081, 0xe019041b, F=0x0
0,        163,        163,        1,    19176, 0x1acc040f, F=0x0
0,        164,        164,        1,    19218, 0x27080108, F=0x0
0,        165,        165,        1,    19406, 0xae676585, F=0x0
0,        166,        166,        1,    19488, 0x9619a232, F=0x0
0,        167,        167,        1,    19667, 0x88e71365, F=0x0
0,        168,        168,        1,    19680, 0xd20d1a77, F=0x0
0,        169,        169,        1,    19944, 0xc3d0647e, F=0x0
0,        170,        170,        1,    19983, 0xbca79c59, F=0x0
0,        171,        171,        1,    20029, 0x2c238ced, F=0x0
0,        172,        172,        1,    20068, 0xaad778bc, F=0x0
